<?xml version="1.0" encoding="utf-8"?>

<!-- Uploaded to: SVG Repo, www.svgrepo.com, Generator: SVG Repo Mixer Tools -->
<svg version="1.1" id="Icons" xmlns="http://www.w3.org/2000/svg" xmlns:xlink="http://www.w3.org/1999/xlink" 
	 viewBox="0 0 32 32" xml:space="preserve">
<style type="text/css">
	.st0{fill:none;stroke:#000000;stroke-width:2;stroke-linecap:round;stroke-linejoin:round;stroke-miterlimit:10;}
</style>
<path class="st0" d="M18.5,8.8l-0.1-1C18,5.6,16.4,4,14.5,4h0c-1.9,0-3.5,1.6-3.8,3.8l-0.1,1c-0.3,2.1-1,4.1-2,5.8
	C7.6,16.2,7,18.2,7,20.4c0,5.3,3.4,8.6,7.5,8.6s7.5-3.3,7.5-8.6c0-2.2-0.6-4.2-1.5-5.8C19.5,12.9,18.8,10.9,18.5,8.8z"/>
<path class="st0" d="M21,6c3,7,6,9,6,14s-4.8,9-12,9"/>
<path class="st0" d="M18,20c0,2.2-1.6,4-3.5,4S11,22.2,11,20s1.6-5.1,3.5-5.1S18,17.8,18,20z"/>
</svg>