<?xml version="1.0" encoding="utf-8"?>
<svg version="1.1" id="Icons" viewBox="0 0 32 32" xmlns="http://www.w3.org/2000/svg">
  <style type="text/css">
	.st0{fill:none;stroke:#000000;stroke-width:2;stroke-linecap:round;stroke-linejoin:round;stroke-miterlimit:10;}
</style>
  <path class="st0" d="M20.6,13.2v-0.4c0-2.4-1.8-4.6-4.2-4.8c-2.8-0.3-5.1,1.9-5.1,4.6v0.6c0,1.3-0.5,2.5-1.4,3.5 c-1.6,1.8-2.3,4.2-1.9,6.8c0.6,3.1,3.1,5.7,6.3,6.3c5.1,1,9.6-2.9,9.6-7.8c0-2-0.8-3.9-2-5.3C21.2,15.8,20.6,14.5,20.6,13.2z" style="fill: rgb(172, 191, 112); stroke: rgb(56, 97, 57);"/>
  <path class="st0" d="M 18 2 C 16.7 3.086 16 4.506 16 6.01 L 16 7.012" style=""/>
  <path class="st0" d="M27,5c0,0-1.8,2-4,2s-4-2-4-2s1.8-2,4-2S27,5,27,5z" style="fill: rgb(116, 190, 113); stroke: rgb(18, 72, 11);"/>
</svg>