<?xml version="1.0" encoding="utf-8"?>

<!-- Uploaded to: SVG Repo, www.svgrepo.com, Generator: SVG Repo Mixer Tools -->
<svg version="1.1" id="Icons" xmlns="http://www.w3.org/2000/svg" xmlns:xlink="http://www.w3.org/1999/xlink" 
	 viewBox="0 0 32 32" xml:space="preserve">
<style type="text/css">
	.st0{fill:none;stroke:#000000;stroke-width:2;stroke-linecap:round;stroke-linejoin:round;stroke-miterlimit:10;}
</style>
<path class="st0" d="M22.6,14c-2.5-1.1-3.2-4.9-3.2-4.9s3.3-1.9,5.8-0.8s3.2,4.9,3.2,4.9S25.1,15.1,22.6,14z"/>
<path class="st0" d="M8,21c0-9.4,7.6-17,17-17"/>
<path class="st0" d="M20.5,23.5c-4.6-4.6-6-11.1-4.3-16.9"/>
<path class="st0" d="M13,22c0,2.8-2.2,5-5,5s-5-2.2-5-5s2.2-4,5-4S13,19.2,13,22z"/>
<path class="st0" d="M25,21.4c1.5,2.3,0.8,5.4-1.5,6.8c-2.3,1.4-5.3,0.7-6.8-1.6s-0.3-4.5,2-5.9C21,19.2,23.5,19.1,25,21.4z"/>
</svg>