<?xml version="1.0" encoding="utf-8"?>
<svg version="1.1" id="Icons" viewBox="0 0 32 32" xmlns="http://www.w3.org/2000/svg">
  <style type="text/css">
	.st0{fill:none;stroke:#000000;stroke-width:2;stroke-linecap:round;stroke-linejoin:round;stroke-miterlimit:10;}
</style>
  <path class="st0" d="M20,4c-1.2,0-2.3,0.6-3,1.1C16.4,5.6,16,6,16,6s-0.4-0.4-1-0.9C14.3,4.6,13.2,4,12,4C9.8,4,8,6,8,6s1.8,2,4,2 c0.8,0,1.5-0.2,2.1-0.5C14,7.6,14,7.8,14,8c0,2.2,2,4,2,4s2-1.8,2-4c0-0.2,0-0.4-0.1-0.5C18.5,7.8,19.2,8,20,8c2.2,0,4-2,4-2 S22.2,4,20,4z" style="stroke: rgb(79, 106, 51); fill: rgb(158, 193, 42);"/>
  <g>
    <line class="st0" x1="16" y1="15" x2="16" y2="17"/>
    <line class="st0" x1="16" y1="21" x2="16" y2="23"/>
    <line class="st0" x1="21" y1="13" x2="21" y2="15"/>
    <line class="st0" x1="11" y1="13" x2="11" y2="15"/>
    <line class="st0" x1="12" y1="18" x2="12" y2="20"/>
    <line class="st0" x1="20" y1="18" x2="20" y2="20"/>
  </g>
  <line class="st0" x1="16" y1="2" x2="16" y2="5" style="stroke: rgb(79, 106, 51);"/>
  <path class="st0" d="M10,7.5C7,9.1,5,11.8,5,15c0,1.8,0.7,3.6,1.9,5c1.5,1.9,2.9,3.9,3.7,6.1l0.3,0.7c0.6,1.6,2.5,2.5,4.2,2.1 c0.6-0.1,1.2-0.1,1.7,0c1.8,0.4,3.6-0.5,4.2-2.1l0.3-0.7c0.9-2.2,2.2-4.2,3.7-6.1c1.2-1.4,1.9-3.1,1.9-5c0-3.1-2-5.9-5-7.5" style="stroke: rgb(157, 15, 15); fill: rgb(239, 63, 63);"/>
  <g transform="matrix(1, 0, 0, 1, 0.197531, -0.222223)">
    <line class="st0" x1="16" y1="15" x2="16" y2="17" style="stroke: rgb(137, 7, 7);"/>
    <line class="st0" x1="16" y1="21" x2="16" y2="23" style="stroke: rgb(137, 7, 7);"/>
    <line class="st0" x1="21" y1="13" x2="21" y2="15" style="stroke: rgb(137, 7, 7);"/>
    <line class="st0" x1="11" y1="13" x2="11" y2="15" style="stroke: rgb(137, 7, 7);"/>
    <line class="st0" x1="12" y1="18" x2="12" y2="20" style="stroke: rgb(137, 7, 7);"/>
    <line class="st0" x1="20" y1="18" x2="20" y2="20" style="stroke: rgb(137, 7, 7);"/>
  </g>
  <path class="st0" d="M 20 3.967 C 18.8 3.967 17.7 4.567 17 5.067 C 16.4 5.567 16 5.967 16 5.967 C 16 5.967 15.6 5.567 15 5.067 C 14.3 4.567 13.2 3.967 12 3.967 C 9.8 3.967 8 5.967 8 5.967 C 8 5.967 9.8 7.967 12 7.967 C 12.8 7.967 13.5 7.767 14.1 7.467 C 14 7.567 14 7.767 14 7.967 C 14 10.167 16 11.967 16 11.967 C 16 11.967 18 10.167 18 7.967 C 18 7.767 18 7.567 17.9 7.467 C 18.5 7.767 19.2 7.967 20 7.967 C 22.2 7.967 24 5.967 24 5.967 C 24 5.967 22.2 3.967 20 3.967 Z" style="stroke: rgb(79, 106, 51); fill: rgb(158, 193, 42);"/>
</svg>